<svg width="139" height="122" viewBox="0 0 139 122" fill="none" xmlns="http://www.w3.org/2000/svg">
<g filter="url(#filter0_d_11_177)">
<path d="M62.4471 8.00001C43.9438 8.01446 25.8388 20.4651 18.8169 29.4329C2.38244 50.4217 -6.84714 92.9788 60.6685 81.908C80.5955 78.6406 93.2005 59.5337 95.8608 42.5607C105.316 45.8861 119.687 41.979 119.994 33.3551C120.405 21.7919 100.153 9.42482 88.5964 18.7314C80.615 10.9522 71.4834 7.99303 62.4471 8.00001ZM107.922 32.4467C108.496 32.4467 109.045 32.675 109.451 33.0813C109.856 33.4877 110.084 34.0388 110.084 34.6135C110.084 35.1882 109.856 35.7393 109.451 36.1457C109.045 36.552 108.496 36.7803 107.922 36.7803C107.349 36.7803 106.8 36.552 106.394 36.1457C105.989 35.7393 105.761 35.1882 105.761 34.6135C105.761 34.0388 105.989 33.4877 106.394 33.0813C106.8 32.675 107.349 32.4467 107.922 32.4467ZM114.472 45.9663C112.333 47.0605 109.974 47.8182 107.495 48.1914C112.768 58.7977 114.561 70.4832 118.447 81.5201C119.11 73.6957 119.068 58.6552 114.472 45.9663ZM59.2965 86.7754C57.8567 87.135 56.4036 87.4386 54.9404 87.6855L60.196 98.7117C55.4758 98.699 50.7561 98.8103 46.0417 99.0457L43.1982 88.4005C41.6494 88.3259 40.1184 88.1838 38.6106 87.9758L41.6357 99.3014C39.9301 99.4121 38.2029 99.5346 36.4337 99.6813L36.79 104C55.1042 102.481 69.9173 102.984 80.8294 103.998L81.228 99.6832C76.5185 99.2455 71.0977 98.9041 65.0138 98.77L59.2965 86.7754Z" fill="#EDF2F4"/>
</g>
<defs>
<filter id="filter0_d_11_177" x="0" y="0" width="139" height="122" filterUnits="userSpaceOnUse" color-interpolation-filters="sRGB">
<feFlood flood-opacity="0" result="BackgroundImageFix"/>
<feColorMatrix in="SourceAlpha" type="matrix" values="0 0 0 0 0 0 0 0 0 0 0 0 0 0 0 0 0 0 127 0" result="hardAlpha"/>
<feMorphology radius="6" operator="dilate" in="SourceAlpha" result="effect1_dropShadow_11_177"/>
<feOffset dx="6" dy="5"/>
<feGaussianBlur stdDeviation="3.5"/>
<feComposite in2="hardAlpha" operator="out"/>
<feColorMatrix type="matrix" values="0 0 0 0 0 0 0 0 0 0 0 0 0 0 0 0 0 0 0.25 0"/>
<feBlend mode="normal" in2="BackgroundImageFix" result="effect1_dropShadow_11_177"/>
<feBlend mode="normal" in="SourceGraphic" in2="effect1_dropShadow_11_177" result="shape"/>
</filter>
</defs>
</svg>
